<?xml version='1.0' encoding='utf-8'?>
<svg xmlns="http://www.w3.org/2000/svg" width="84.667mm" height="84.667mm" clip-rule="evenodd" fill-rule="evenodd" image-rendering="optimizeQuality" shape-rendering="geometricPrecision" text-rendering="geometricPrecision" version="1.1" viewBox="0 0 8467 8467"> <defs> <style type="text/css">.fil0 {fill:#330066} .fil1 {fill:white}</style> </defs> <rect class="fil0" width="8467" height="8467"/> <path class="fil1" d="m4398 4082-16-18c-6-6-12-11-17-16-20 64-55 125-105 181 169 154 394 161 598-33 209-197-118 104 93-91-149-167-307 10-307 10-80 62-142 71-246-33zm1012-732 12-307c-42-15-90-23-143-23-218-1-382 125-419 363-5 123 0 306-40 416 266-95 539-121 590-449zm-351 146 2-66c9-64 27-120 66-155 22-20 51-34 88-40-4 96-20 214-121 252l-35 9zm59 1886 305 40c18-42 30-89 35-141 21-217-90-392-324-450-122-16-305-26-411-76 71 273 73 548 395 627zm-115-363 67 9c63 15 116 37 148 79 18 24 29 53 32 91-95-12-211-39-241-142l-6-37zm-1946 96-13 307c43 15 91 23 144 23 217 1 382-125 419-362 5-124-1-307 40-417-266 95-539 121-590 449zm351-146-3 66c-9 65-26 120-65 155-22 20-51 34-88 40 3-95 20-214 121-252l35-9zm674-900-18 16c-6 6-11 11-16 17 64 19 125 54 181 104 154-168 161-393-33-597-197-209 104 118-91-94-167 150 10 308 10 308 62 79 71 141-33 246zm-731-1013-307-13c-15 43-23 91-23 144-1 218 125 382 362 419 124 5 307 0 417 40-95-266-121-539-449-590zm146 351-66-2c-65-10-120-27-155-66-20-22-34-51-40-88 95 4 214 20 252 121l9 35zm414 940c-18 60-27 125-27 192 2 153 57 306 164 431l173 187c39 52 66 103 63 156-1 30-11 60-34 90-65-70-137-165-93-263l-147-160c-98 142-100 315 21 480l209 226c40-20 79-48 117-85 155-154 182-359 40-553l-48-52-6-6-100-109-37-41c-77-88-117-196-118-303-1-26 1-51 5-76l-7-5c-10-8-19-17-27-25l-2-2-17-18c-44-44-78-64-106-67-8 0-16 1-23 3zm474 51 18-16c5-6 11-12 16-17-65-20-126-55-181-105-154 169-161 394 32 598 198 209-103-118 92 93 166-149-10-307-10-307-62-80-72-142 33-246zm171-278c18-61 27-125 26-192-1-154-57-306-164-431l-173-187c-39-52-65-104-63-156 2-30 12-60 35-91 64 70 137 166 92 264l148 160c98-142 99-315-21-480l-209-226c-40 20-80 48-117 85-155 153-183 359-40 553l48 52 5 6 100 109 38 41c77 88 117 195 118 303 0 26-1 51-5 75 12 10 23 20 34 31l2 1 17 18c44 45 77 65 106 67 8 1 15 0 23-2zm-436-209c-61-18-125-27-192-27-154 2-306 57-431 164l-187 173c-52 39-104 66-156 63-30-1-60-11-91-34 70-65 166-137 264-93l160-147c-142-98-315-100-480 21l-226 209c20 40 48 79 85 117 153 155 359 182 553 40l52-48 6-6 109-100 41-37c88-78 195-117 303-118 26-1 51 1 75 5l6-7c8-10 16-19 25-27l1-2 18-17c45-44 65-78 67-106 1-8 0-16-2-23zm-51 474 16 18c6 5 11 11 17 16 19-65 55-126 104-181-168-154-393-161-597 32-209 198 118-103-94 92 150 166 308-10 308-10 79-62 141-72 246 33zm278 171c60 18 125 27 192 26 153-1 306-57 431-164l187-173c52-39 103-65 156-63 30 2 60 12 90 35-70 64-165 137-263 92l-160 148c142 98 315 99 480-21l226-209c-20-40-48-80-85-117-153-155-359-183-553-40l-52 48-6 5-109 100-41 38c-88 77-196 117-303 118-26 0-51-1-76-5-9 12-19 23-30 34l-2 2-18 17c-44 44-64 77-67 106 0 8 1 15 3 23z"/> </svg>